<svg xmlns="http://www.w3.org/2000/svg" width="87" height="87" viewBox="0 0 87 87">
  <metadata><?xpacket begin="﻿" id="W5M0MpCehiHzreSzNTczkc9d"?>
<x:xmpmeta xmlns:x="adobe:ns:meta/" x:xmptk="Adobe XMP Core 5.6-c138 79.159824, 2016/09/14-01:09:01        ">
   <rdf:RDF xmlns:rdf="http://www.w3.org/1999/02/22-rdf-syntax-ns#">
      <rdf:Description rdf:about=""/>
   </rdf:RDF>
</x:xmpmeta>
                                                                                                    
                                                                                                    
                                                                                                    
                                                                                                    
                                                                                                    
                                                                                                    
                                                                                                    
                                                                                                    
                                                                                                    
                                                                                                    
                                                                                                    
                                                                                                    
                                                                                                    
                                                                                                    
                                                                                                    
                                                                                                    
                                                                                                    
                                                                                                    
                                                                                                    
                                                                                                    
                           
<?xpacket end="w"?></metadata>
<defs>
    <style>
      .cls-1 {
        fill: #fff;
        fill-rule: evenodd;
      }
    </style>
  </defs>
  <path id="椭圆_5_拷贝_2" data-name="椭圆 5 拷贝 2" class="cls-1" d="M43.5,1A42.5,42.5,0,1,1,1,43.5,42.5,42.5,0,0,1,43.5,1Zm0,0A42.5,42.5,0,1,1,1,43.5,42.5,42.5,0,0,1,43.5,1Zm0,0A42.5,42.5,0,1,1,1,43.5,42.5,42.5,0,0,1,43.5,1Zm0,5A37.5,37.5,0,1,1,6,43.5,37.5,37.5,0,0,1,43.5,6ZM56.666,27.961L48.3,42.5h6.419a2,2,0,0,1,2,2v1.291a2,2,0,0,1-2,2H46.177v2.663h8.544a2,2,0,0,1,2,2v1.291a2,2,0,0,1-2,2H46.177V63a2,2,0,0,1-2,2H42.87a2,2,0,0,1-2-2V55.749H31a2,2,0,0,1-2-2V52.457a2,2,0,0,1,2-2h9.87V47.794H31a2,2,0,0,1-2-2V44.5a2,2,0,0,1,2-2h7.355L29.409,27.888a2.52,2.52,0,0,1,1.008-3.55,2.848,2.848,0,0,1,3.764.951l8.955,14.63a2.5,2.5,0,0,1,.258.6,2.523,2.523,0,0,1,.129-0.3l8.573-14.9A2.64,2.64,0,1,1,56.666,27.961ZM43.133,42.5h0.23a2.738,2.738,0,0,1-.079-0.29A2.522,2.522,0,0,1,43.133,42.5Z"/>
</svg>
